<?xml version="1.0" standalone="no"?>
<!DOCTYPE svg PUBLIC "-//W3C//DTD SVG 20010904//EN"
 "http://www.w3.org/TR/2001/REC-SVG-20010904/DTD/svg10.dtd">
<svg version="1.0" xmlns="http://www.w3.org/2000/svg"
 width="433.000000pt" height="433.000000pt" viewBox="0 0 433.000000 433.000000"
 preserveAspectRatio="xMidYMid meet">
<metadata>
Created by potrace 1.14, written by Peter Selinger 2001-2017
</metadata>
<g transform="translate(0.000000,433.000000) scale(0.100000,-0.100000)"
fill="#000000" stroke="none">
<path d="M85 4319 c-42 -7 -65 -30 -66 -66 -5 -179 0 -4176 6 -4192 4 -12 18
-26 32 -32 15 -5 831 -9 2117 -9 l2093 0 27 21 26 20 0 2097 c0 1153 -3 2107
-6 2118 -3 12 -16 27 -29 34 -18 10 -463 13 -2093 14 -1138 0 -2086 -2 -2107
-5z m2010 -1132 l0 -987 -482 -482 -483 -483 -482 482 -483 483 -1 977 c0 538
3 983 7 988 5 7 338 10 966 10 l958 0 0 -988z m1965 983 c0 -3 -191 -196 -424
-429 -370 -370 -427 -423 -440 -411 -19 15 -818 814 -834 832 -8 11 154 13
844 13 470 0 854 -2 854 -5z m-1380 -1385 c-234 -234 -428 -425 -431 -425 -3
0 -6 385 -6 856 l0 855 431 -430 431 -431 -425 -425z m1491 425 c0 -463 -2
-844 -4 -846 -5 -6 -847 836 -847 846 0 10 842 851 847 846 2 -2 4 -383 4
-846z m-534 -532 c233 -233 423 -425 423 -428 0 -3 -382 -5 -850 -5 -467 0
-850 3 -850 6 0 8 841 849 849 849 3 0 196 -190 428 -422z m423 -585 c0 -2
-192 -196 -426 -430 l-426 -426 -424 424 c-233 233 -424 427 -424 430 0 4 383
7 850 7 468 0 850 -2 850 -5z m-1421 -497 l464 -464 -467 -468 -468 -467 -464
464 c-255 255 -464 467 -464 470 0 8 921 929 929 929 3 0 215 -209 470 -464z
m1532 -412 c0 -440 0 -824 -1 -854 l0 -55 -429 429 -429 429 426 428 c235 235
428 426 430 424 2 -2 3 -362 3 -801z m-3571 371 l425 -425 -425 -425 c-233
-233 -427 -422 -430 -419 -6 7 -7 1694 0 1694 3 0 196 -191 430 -425z m960
-960 c234 -234 418 -425 410 -426 -93 -4 -1690 -2 -1690 2 0 9 841 849 849
849 3 0 197 -191 431 -425z m2080 0 c234 -234 418 -425 410 -426 -74 -3 -1695
-1 -1695 3 0 9 840 847 850 848 6 0 201 -191 435 -425z"/>
</g>
</svg>
